# xmcd CD database file
#
# Track frame offsets:
#	150
#	23973
#	39935
#	54276
#	74251
#	94962
#	116118
#	139965
#	165215
#	179077
#	204265
#	229600
#
# Disc length: 3377 seconds
#
# Revision: 1
# Processed by: cddbd v1.5.1PL2 Copyright (c) Steve Scherf et al.
# Submitted via: CDex 1.51
#
DISCID=9f0d2f0c
DTITLE=Various Artist - When the Day is Done
DYEAR=2003
DGENRE=Jazz
TTITLE0=Wolfgang Haffner - Criss Cross
TTITLE1=Fessler - Oh Well Brazil
TTITLE2=Carmen Cuesta-Loeb - La Bossa de Kris
TTITLE3=Wolfgang Schmid - November Eleven
TTITLE4=Will Lee - My Little Suede Shoes
TTITLE5=Carmen Cuesta-Loeb - Corcovado
TTITLE6=Wolfgang Haffner - Far From Home
TTITLE7=The Earth Project - Spaceman
TTITLE8=Fessler - Black Orfeo
TTITLE9=Carmen Cuesta-Loeb - Dreams
TTITLE10=Robert Wolf - Sal De La Tierra
TTITLE11=David Gazarov - Darn That Dream
EXTD=YEAR: 2003
EXTT0=
EXTT1=
EXTT2=
EXTT3=
EXTT4=
EXTT5=
EXTT6=
EXTT7=
EXTT8=
EXTT9=
EXTT10=
EXTT11=
PLAYORDER=
